<svg width="13" height="12" viewBox="0 0 13 12" fill="none" xmlns="http://www.w3.org/2000/svg">
<path d="M12.6927 4.92809L8.41331 0.648731C8.21872 0.443983 7.94977 0.326462 7.66731 0.322841C7.38494 0.319213 7.113 0.429659 6.91325 0.629325C6.71349 0.828905 6.60268 1.10076 6.60614 1.38313C6.60958 1.66549 6.72683 1.93463 6.9314 2.12932L9.46095 4.65515H1.04777C0.673459 4.65515 0.327536 4.85491 0.140368 5.17907C-0.0467892 5.50325 -0.0467892 5.90258 0.140368 6.22676C0.327524 6.55093 0.673459 6.75068 1.04777 6.75068H9.4375L6.9314 9.26096C6.67777 9.52773 6.58283 9.90803 6.68123 10.2627C6.77962 10.6175 7.05691 10.8945 7.41173 10.9926C7.76645 11.0906 8.14675 10.9953 8.41333 10.7415L12.6927 6.46216C12.8899 6.26612 13.0004 5.99927 12.9995 5.72124C13.0002 5.71254 13.0002 5.70383 12.9995 5.69522C13.0001 5.6866 13.0001 5.6779 12.9995 5.66919C12.9994 5.39135 12.889 5.12487 12.6927 4.92827L12.6927 4.92809Z" fill="#5469D4"/>
</svg>
