<svg width="13" height="11" viewBox="0 0 13 11" fill="none" xmlns="http://www.w3.org/2000/svg">
<path d="M0.307331 6.10242L4.58669 10.3818C4.78128 10.5865 5.05023 10.7041 5.33269 10.7077C5.61506 10.7113 5.887 10.6009 6.08675 10.4012C6.28651 10.2016 6.39732 9.92975 6.39386 9.64739C6.39042 9.36502 6.27317 9.09589 6.0686 8.9012L3.53905 6.37537L11.9522 6.37537C12.3265 6.37537 12.6725 6.17561 12.8596 5.85144C13.0468 5.52727 13.0468 5.12793 12.8596 4.80376C12.6725 4.47959 12.3265 4.27984 11.9522 4.27984L3.5625 4.27984L6.0686 1.76956C6.32223 1.50279 6.41717 1.12249 6.31877 0.767767C6.22039 0.413045 5.94309 0.136019 5.58827 0.0379194C5.23355 -0.0601031 4.85325 0.0351994 4.58667 0.288994L0.307307 4.56835C0.110085 4.7644 -0.000359993 5.03125 0.00054502 5.30927C-0.000180727 5.31798 -0.000180728 5.32668 0.000545018 5.3353C-9.01301e-05 5.34391 -9.01309e-05 5.35262 0.000545015 5.36132C0.00063559 5.63916 0.110988 5.90565 0.307307 6.10224L0.307331 6.10242Z" fill="#787878"/>
</svg>
