<svg width="7" height="3" viewBox="0 0 7 3" fill="none" xmlns="http://www.w3.org/2000/svg">
<path d="M3.50208 4.52995e-06C3.43047 5.22137e-05 3.36176 0.0226369 3.31109 0.0627434L0.0860057 2.6296C0.0323748 2.66918 0.00130683 2.72428 4.04537e-05 2.78234C-0.0012264 2.84035 0.0273077 2.89631 0.0791286 2.93732C0.13101 2.97839 0.201712 3.00097 0.275015 2.99997C0.348372 2.99892 0.417989 2.97438 0.467998 2.93193L3.52011 0.519088L6.5903 2.94904C6.661 2.98275 6.74739 2.98905 6.82467 2.96609C6.90201 2.94312 6.96179 2.89342 6.98707 2.8312C7.01229 2.76899 7.00023 2.701 6.95426 2.64671L3.69304 0.065556V0.0656037C3.64302 0.0243983 3.57425 0.000811577 3.50204 0L3.50208 4.52995e-06Z" fill="#545454"/>
</svg>
