<svg width="7" height="3" viewBox="0 0 7 3" fill="none" xmlns="http://www.w3.org/2000/svg">
<path d="M3.49792 3C3.56953 2.99995 3.63824 2.97736 3.68891 2.93726L6.91399 0.370404C6.96763 0.330822 6.99869 0.275723 6.99996 0.217664C7.00123 0.159652 6.97269 0.103694 6.92087 0.0626754C6.86899 0.0216131 6.79829 -0.000970318 6.72498 3.19701e-05C6.65163 0.00108238 6.58201 0.0256246 6.532 0.0680705L3.47989 2.48091L0.409701 0.0509577C0.338999 0.0172488 0.25261 0.0109466 0.17533 0.0339126C0.0979915 0.0568786 0.038208 0.106583 0.0129256 0.168795C-0.012291 0.231008 -0.00022557 0.298995 0.045743 0.35329L3.30696 2.93444L3.30696 2.9344C3.35698 2.9756 3.42575 2.99919 3.49796 3L3.49792 3Z" fill="#545454"/>
</svg>
