<svg width="6" height="8" viewBox="0 0 6 8" fill="none" xmlns="http://www.w3.org/2000/svg">
<path d="M5.22367 3.17126H5.00977L5.00892 2.10526C5.00802 0.943951 4.06327 -0.000772724 2.90196 4.74272e-07C1.74071 0.000846167 0.795923 0.945652 0.796696 2.10696L0.798448 3.17302H0.722215C0.322998 3.17386 -0.000910451 3.49776 1.92274e-06 3.89698V7.0708C1.92274e-06 7.47002 0.324745 7.79393 0.723962 7.79393L5.22537 7.79133C5.62458 7.79133 5.94849 7.46744 5.94758 7.0682V3.89361C5.94758 3.49439 5.62284 3.17133 5.22362 3.17133L5.22367 3.17126ZM1.57448 3.17301L1.57273 2.10695C1.57273 1.37344 2.16851 0.776806 2.90203 0.775971C3.63554 0.775971 4.23218 1.37266 4.23218 2.10527L4.23393 3.17132L1.57448 3.17301Z" fill="#5C5C5C"/>
</svg>
