<svg width="85" height="36" viewBox="0 0 85 36" fill="none" xmlns="http://www.w3.org/2000/svg">
<path fill-rule="evenodd" clip-rule="evenodd" d="M84.423 18.5026C84.423 12.5196 81.535 7.79874 76.0151 7.79874C70.472 7.79874 67.1181 12.5196 67.1181 18.4558C67.1181 25.4904 71.0775 29.0428 76.7604 29.0428C79.532 29.0428 81.6282 28.4118 83.2119 27.5237V22.8495C81.6282 23.6441 79.8115 24.1349 77.5057 24.1349C75.2466 24.1349 73.2436 23.3403 72.9874 20.5826H84.3765C84.3765 20.2787 84.423 19.0635 84.423 18.5026ZM72.9175 16.2823C72.9175 13.6414 74.5245 12.543 75.9919 12.543C77.4126 12.543 78.9265 13.6414 78.9265 16.2823H72.9175ZM58.128 7.79874C55.8455 7.79874 54.3782 8.8738 53.563 9.62166L53.2602 8.17267H48.1363V35.423L53.959 34.1844L53.9822 27.5704C54.8207 28.1781 56.0551 29.0428 58.1047 29.0428C62.2737 29.0428 66.0701 25.6774 66.0701 18.2689C66.0468 11.4913 62.2038 7.79874 58.128 7.79874ZM56.7305 23.9012C55.3564 23.9012 54.5412 23.4104 53.9822 22.8028L53.959 14.1322C54.5645 13.4545 55.403 12.9871 56.7305 12.9871C58.85 12.9871 60.3173 15.3709 60.3173 18.4324C60.3173 21.5641 58.8733 23.9012 56.7305 23.9012ZM40.1243 6.41987L45.9703 5.15784V0.413574L40.1243 1.65223V6.41987ZM40.1243 8.19605H45.9703V28.6455H40.1243V8.19605ZM33.8592 9.92548L33.4865 8.19605H28.4557V28.6455H34.2784V14.7866C35.6525 12.9871 37.9816 13.3142 38.7036 13.5713V8.19605C37.9583 7.9156 35.2333 7.40144 33.8592 9.92548ZM22.2139 3.12459L16.531 4.33987L16.5077 23.0599C16.5077 26.5187 19.0929 29.0662 22.5399 29.0662C24.4498 29.0662 25.8472 28.7156 26.6158 28.2949V23.5507C25.8705 23.8545 22.1906 24.9295 22.1906 21.4707V13.174H26.6158V8.19605H22.1906L22.2139 3.12459ZM6.46943 14.1322C6.46943 13.2208 7.21472 12.8702 8.44913 12.8702C10.2192 12.8702 12.4551 13.4077 14.2252 14.3659V8.8738C12.2921 8.10256 10.3822 7.79874 8.44913 7.79874C3.72114 7.79874 0.576904 10.276 0.576904 14.4127C0.576904 20.863 9.42733 19.8347 9.42733 22.6158C9.42733 23.6909 8.49571 24.0414 7.19143 24.0414C5.25831 24.0414 2.78951 23.2468 0.8331 22.1718V27.734C2.99913 28.6689 5.18844 29.0662 7.19143 29.0662C12.0359 29.0662 15.3664 26.659 15.3664 22.4756C15.3431 15.5111 6.46943 16.7498 6.46943 14.1322Z" fill="#8792A2"/>
</svg>
